<svg xmlns="http://www.w3.org/2000/svg" viewBox="0 0 512 512" role="img" aria-label="Ibai Tudanca Photo">
  <style>
    path { fill: #ffffff; }
    @media (prefers-color-scheme: light) { path { fill: #050505; } }
  </style>
  <path fill-rule="evenodd" clip-rule="evenodd" d="M 265 229 L 267 231 L 267 232 L 273 238 L 274 238 L 275 239 L 279 239 L 280 238 L 283 237 L 285 235 L 286 235 L 287 234 L 286 233 L 287 232 L 288 232 L 289 233 L 293 230 L 298 228 L 300 226 L 301 226 L 308 222 L 310 222 L 311 221 L 313 221 L 314 220 L 321 220 L 322 221 L 328 221 L 329 222 L 334 222 L 335 223 L 339 223 L 340 224 L 344 224 L 345 225 L 351 225 L 345 225 L 344 224 L 345 223 L 351 223 L 351 222 L 352 221 L 353 222 L 353 223 L 353 221 L 350 221 L 349 220 L 350 219 L 351 219 L 350 219 L 345 215 L 344 215 L 333 209 L 331 209 L 333 209 L 336 211 L 335 212 L 333 212 L 332 211 L 327 210 L 326 209 L 327 208 L 329 208 L 327 208 L 326 207 L 323 207 L 326 207 L 327 208 L 326 209 L 322 209 L 321 208 L 304 208 L 303 209 L 299 209 L 298 208 L 299 207 L 302 207 L 299 207 L 298 208 L 296 208 L 298 208 L 299 209 L 298 210 L 296 210 L 295 211 L 292 211 L 291 210 L 292 209 L 294 209 L 289 210 L 288 211 L 279 215 L 277 217 L 274 218 L 265 226 Z M 274 238 L 275 237 L 279 237 L 280 238 L 279 239 L 275 239 Z M 279 237 L 280 236 L 281 236 L 282 237 L 281 238 L 280 238 Z M 272 237 L 273 236 L 274 236 L 275 237 L 274 238 L 273 238 Z M 281 236 L 282 235 L 283 235 L 284 236 L 283 237 L 282 237 Z M 271 236 L 272 235 L 273 236 L 272 237 Z M 283 235 L 284 234 L 285 235 L 284 236 Z M 270 235 L 271 234 L 272 235 L 271 236 Z M 284 234 L 285 233 L 286 233 L 287 234 L 286 235 L 285 235 Z M 269 234 L 270 233 L 271 234 L 270 235 Z M 268 233 L 269 232 L 270 233 L 269 234 Z M 288 232 L 289 231 L 290 232 L 289 233 Z M 289 231 L 290 230 L 291 230 L 292 231 L 291 232 L 290 232 Z M 267 231 L 268 230 L 269 231 L 268 232 Z M 291 230 L 292 229 L 293 230 L 292 231 Z M 266 230 L 267 229 L 268 230 L 267 231 Z M 293 229 L 294 228 L 295 229 L 294 230 Z M 294 228 L 295 227 L 296 227 L 297 228 L 296 229 L 295 229 Z M 296 227 L 297 226 L 298 226 L 299 227 L 298 228 L 297 228 Z M 298 226 L 299 225 L 300 226 L 299 227 Z M 266 225 L 267 226 L 267 229 L 266 230 L 265 229 L 265 226 Z M 299 225 L 300 224 L 301 224 L 302 225 L 301 226 L 300 226 Z M 266 225 L 267 224 L 268 225 L 267 226 Z M 301 224 L 302 223 L 303 223 L 304 224 L 303 225 L 302 225 Z M 267 224 L 268 223 L 269 224 L 268 225 Z M 339 223 L 340 222 L 344 222 L 345 223 L 344 224 L 340 224 Z M 303 223 L 304 222 L 305 222 L 306 223 L 305 224 L 304 224 Z M 268 223 L 269 222 L 270 223 L 269 224 Z M 334 222 L 335 221 L 339 221 L 340 222 L 339 223 L 335 223 Z M 305 222 L 306 221 L 307 221 L 308 222 L 307 223 L 306 223 Z M 269 222 L 270 221 L 271 221 L 272 222 L 271 223 L 270 223 Z M 328 221 L 329 220 L 334 220 L 335 221 L 334 222 L 329 222 Z M 307 221 L 308 220 L 310 220 L 311 221 L 310 222 L 308 222 Z M 271 221 L 272 220 L 273 221 L 272 222 Z M 321 220 L 322 219 L 328 219 L 329 220 L 328 221 L 322 221 Z M 310 220 L 311 219 L 313 219 L 314 220 L 313 221 L 311 221 Z M 272 220 L 273 219 L 274 220 L 273 221 Z M 348 219 L 349 218 L 350 219 L 349 220 Z M 313 219 L 314 218 L 321 218 L 322 219 L 321 220 L 314 220 Z M 273 219 L 274 218 L 275 218 L 276 219 L 275 220 L 274 220 Z M 346 218 L 347 217 L 348 217 L 349 218 L 348 219 L 347 219 Z M 275 218 L 276 217 L 277 218 L 276 219 Z M 345 217 L 346 216 L 347 217 L 346 218 Z M 277 217 L 278 216 L 279 217 L 278 218 Z M 343 216 L 344 215 L 345 215 L 346 216 L 345 217 L 344 217 Z M 278 216 L 279 215 L 280 215 L 281 216 L 280 217 L 279 217 Z M 341 215 L 342 214 L 343 214 L 344 215 L 343 216 L 342 216 Z M 280 215 L 281 214 L 282 214 L 283 215 L 282 216 L 281 216 Z M 339 214 L 340 213 L 341 213 L 342 214 L 341 215 L 340 215 Z M 282 214 L 283 213 L 284 213 L 285 214 L 284 215 L 283 215 Z M 337 213 L 338 212 L 339 212 L 340 213 L 339 214 L 338 214 Z M 284 213 L 285 212 L 286 212 L 287 213 L 286 214 L 285 214 Z M 335 212 L 336 211 L 337 211 L 338 212 L 337 213 L 336 213 Z M 286 212 L 287 211 L 288 211 L 289 212 L 288 213 L 287 213 Z M 288 211 L 289 210 L 291 210 L 292 211 L 291 212 L 289 212 Z M 222 84 L 192 97 L 165 120 L 148 147 L 142 173 L 127 167 L 126 187 L 139 200 L 124 210 L 106 207 L 106 248 L 125 267 L 154 266 L 151 268 L 170 291 L 187 302 L 194 301 L 186 269 L 199 257 L 231 256 L 233 242 L 227 236 L 202 240 L 183 256 L 180 245 L 186 236 L 217 225 L 214 223 L 265 210 L 322 167 L 333 167 L 351 190 L 373 238 L 387 349 L 368 381 L 349 402 L 323 419 L 282 423 L 305 421 L 278 420 L 241 402 L 219 379 L 206 350 L 201 351 L 218 391 L 246 417 L 273 430 L 326 428 L 367 400 L 396 350 L 381 256 L 405 218 L 399 169 L 374 124 L 356 106 L 326 88 L 303 81 Z M 272 429 L 273 428 L 275 428 L 276 429 L 275 430 L 273 430 Z M 269 428 L 270 427 L 272 427 L 273 428 L 272 429 L 270 429 Z M 322 427 L 323 426 L 326 426 L 327 427 L 326 428 L 323 428 Z M 267 427 L 268 426 L 269 426 L 270 427 L 269 428 L 268 428 Z M 326 426 L 327 425 L 329 425 L 330 426 L 329 427 L 327 427 Z M 264 426 L 265 425 L 267 425 L 268 426 L 267 427 L 265 427 Z M 329 425 L 330 424 L 331 424 L 332 425 L 331 426 L 330 426 Z M 262 425 L 263 424 L 264 424 L 265 425 L 264 426 L 263 426 Z M 331 424 L 332 423 L 334 423 L 335 424 L 334 425 L 332 425 Z M 260 424 L 261 423 L 262 423 L 263 424 L 262 425 L 261 425 Z M 334 423 L 335 422 L 336 422 L 337 423 L 336 424 L 335 424 Z M 258 423 L 259 422 L 260 422 L 261 423 L 260 424 L 259 424 Z M 336 422 L 337 421 L 338 421 L 339 422 L 338 423 L 337 423 Z M 256 422 L 257 421 L 258 421 L 259 422 L 258 423 L 257 423 Z M 338 421 L 339 420 L 340 421 L 339 422 Z M 277 421 L 278 420 L 281 420 L 282 421 L 281 422 L 278 422 Z M 254 421 L 255 420 L 256 420 L 257 421 L 256 422 L 255 422 Z M 339 420 L 340 419 L 341 419 L 342 420 L 341 421 L 340 421 Z M 311 420 L 312 419 L 315 419 L 316 420 L 315 421 L 312 421 Z M 274 420 L 275 419 L 277 419 L 278 420 L 277 421 L 275 421 Z M 252 420 L 253 419 L 254 419 L 255 420 L 254 421 L 253 421 Z M 341 419 L 342 418 L 343 418 L 344 419 L 343 420 L 342 420 Z M 315 419 L 316 418 L 319 418 L 320 419 L 319 420 L 316 420 Z M 271 419 L 272 418 L 274 418 L 275 419 L 274 420 L 272 420 Z M 250 419 L 251 418 L 252 418 L 253 419 L 252 420 L 251 420 Z M 343 418 L 344 417 L 345 418 L 344 419 Z M 268 418 L 269 417 L 271 417 L 272 418 L 271 419 L 269 419 Z M 344 417 L 345 416 L 346 416 L 347 417 L 346 418 L 345 418 Z M 266 417 L 267 416 L 268 416 L 269 417 L 268 418 L 267 418 Z M 247 417 L 248 416 L 249 417 L 248 418 Z M 346 416 L 347 415 L 348 416 L 347 417 Z M 325 416 L 326 415 L 328 415 L 329 416 L 328 417 L 326 417 Z M 263 416 L 264 415 L 266 415 L 267 416 L 266 417 L 264 417 Z M 245 416 L 246 415 L 247 415 L 248 416 L 247 417 L 246 417 Z M 347 415 L 348 414 L 349 414 L 350 415 L 349 416 L 348 416 Z M 328 415 L 329 414 L 330 414 L 331 415 L 330 416 L 329 416 Z M 261 415 L 262 414 L 263 414 L 264 415 L 263 416 L 262 416 Z M 244 415 L 245 414 L 246 415 L 245 416 Z M 349 414 L 350 413 L 351 414 L 350 415 Z M 330 414 L 331 413 L 332 413 L 333 414 L 332 415 L 331 415 Z M 259 414 L 260 413 L 261 413 L 262 414 L 261 415 L 260 415 Z M 242 414 L 243 413 L 244 413 L 245 414 L 244 415 L 243 415 Z M 350 413 L 351 412 L 352 413 L 351 414 Z M 332 413 L 333 412 L 334 412 L 335 413 L 334 414 L 333 414 Z M 257 413 L 258 412 L 259 412 L 260 413 L 259 414 L 258 414 Z M 241 413 L 242 412 L 243 413 L 242 414 Z M 351 412 L 352 411 L 353 412 L 352 413 Z M 334 412 L 335 411 L 336 411 L 337 412 L 336 413 L 335 413 Z M 255 412 L 256 411 L 257 411 L 258 412 L 257 413 L 256 413 Z M 239 412 L 240 411 L 241 411 L 242 412 L 241 413 L 240 413 Z M 352 411 L 353 410 L 354 410 L 355 411 L 354 412 L 353 412 Z M 336 411 L 337 410 L 338 411 L 337 412 Z M 253 411 L 254 410 L 255 410 L 256 411 L 255 412 L 254 412 Z M 238 411 L 239 410 L 240 411 L 239 412 Z M 354 410 L 355 409 L 356 410 L 355 411 Z M 338 410 L 339 409 L 340 410 L 339 411 Z M 251 410 L 252 409 L 253 409 L 254 410 L 253 411 L 252 411 Z M 237 410 L 238 409 L 239 410 L 238 411 Z M 355 409 L 356 408 L 357 409 L 356 410 Z M 339 409 L 340 408 L 341 408 L 342 409 L 341 410 L 340 410 Z M 249 409 L 250 408 L 251 408 L 252 409 L 251 410 L 250 410 Z M 235 409 L 236 408 L 237 408 L 238 409 L 237 410 L 236 410 Z M 356 408 L 357 407 L 358 408 L 357 409 Z M 341 408 L 342 407 L 343 408 L 342 409 Z M 248 408 L 249 407 L 250 408 L 249 409 Z M 234 408 L 235 407 L 236 408 L 235 409 Z M 357 407 L 358 406 L 359 407 L 358 408 Z M 342 407 L 343 406 L 344 406 L 345 407 L 344 408 L 343 408 Z M 246 407 L 247 406 L 248 406 L 249 407 L 248 408 L 247 408 Z M 233 407 L 234 406 L 235 407 L 234 408 Z M 358 406 L 359 405 L 360 406 L 359 407 Z M 344 406 L 345 405 L 346 406 L 345 407 Z M 245 406 L 246 405 L 247 406 L 246 407 Z M 232 406 L 233 405 L 234 406 L 233 407 Z M 359 405 L 360 404 L 361 405 L 360 406 Z M 345 405 L 346 404 L 347 405 L 346 406 Z M 243 405 L 244 404 L 245 404 L 246 405 L 245 406 L 244 406 Z M 231 405 L 232 404 L 233 405 L 232 406 Z M 360 404 L 361 403 L 362 404 L 361 405 Z M 346 404 L 347 403 L 348 403 L 349 404 L 348 405 L 347 405 Z M 242 404 L 243 403 L 244 404 L 243 405 Z M 230 404 L 231 403 L 232 404 L 231 405 Z M 361 403 L 362 402 L 363 403 L 362 404 Z M 348 403 L 349 402 L 350 403 L 349 404 Z M 240 403 L 241 402 L 242 402 L 243 403 L 242 404 L 241 404 Z M 229 403 L 230 402 L 231 403 L 230 404 Z M 362 402 L 363 401 L 364 402 L 363 403 Z M 349 402 L 350 401 L 351 402 L 350 403 Z M 239 402 L 240 401 L 241 402 L 240 403 Z M 228 402 L 229 401 L 230 402 L 229 403 Z M 363 401 L 364 400 L 365 401 L 364 402 Z M 350 401 L 351 400 L 352 401 L 351 402 Z M 238 401 L 239 400 L 240 401 L 239 402 Z M 227 401 L 228 400 L 229 401 L 228 402 Z M 364 400 L 365 399 L 366 400 L 365 401 Z M 351 400 L 352 399 L 353 400 L 352 401 Z M 237 400 L 238 399 L 239 400 L 238 401 Z M 226 400 L 227 399 L 228 400 L 227 401 Z M 365 399 L 366 398 L 367 399 L 366 400 Z M 352 399 L 353 398 L 354 399 L 353 400 Z M 235 399 L 236 398 L 237 398 L 238 399 L 237 400 L 236 400 Z M 225 399 L 226 398 L 227 399 L 226 400 Z M 366 398 L 367 397 L 368 398 L 367 399 Z M 353 398 L 354 397 L 355 398 L 354 399 Z M 234 398 L 235 397 L 236 398 L 235 399 Z M 224 398 L 225 397 L 226 398 L 225 399 Z M 367 397 L 368 396 L 369 397 L 368 398 Z M 354 397 L 355 396 L 356 397 L 355 398 Z M 233 397 L 234 396 L 235 397 L 234 398 Z M 223 397 L 224 396 L 225 397 L 224 398 Z M 368 396 L 369 395 L 370 396 L 369 397 Z M 355 396 L 356 395 L 357 396 L 356 397 Z M 232 396 L 233 395 L 234 396 L 233 397 Z M 369 395 L 370 394 L 371 395 L 370 396 Z M 356 395 L 357 394 L 358 395 L 357 396 Z M 231 395 L 232 394 L 233 395 L 232 396 Z M 357 394 L 358 393 L 359 394 L 358 395 Z M 230 394 L 231 393 L 232 394 L 231 395 Z M 221 394 L 222 393 L 223 394 L 222 395 Z M 370 393 L 371 392 L 372 393 L 371 394 Z M 358 393 L 359 392 L 360 393 L 359 394 Z M 229 393 L 230 392 L 231 393 L 230 394 Z M 220 393 L 221 392 L 222 393 L 221 394 Z M 371 392 L 372 391 L 373 392 L 372 393 Z M 359 392 L 360 391 L 361 392 L 360 393 Z M 228 392 L 229 391 L 230 392 L 229 393 Z M 219 392 L 220 391 L 221 392 L 220 393 Z M 372 391 L 373 390 L 374 391 L 373 392 Z M 360 391 L 361 390 L 362 391 L 361 392 Z M 227 391 L 228 390 L 229 391 L 228 392 Z M 373 390 L 374 389 L 375 390 L 374 391 Z M 361 390 L 362 389 L 363 390 L 362 391 Z M 226 390 L 227 389 L 228 390 L 227 391 Z M 218 390 L 219 389 L 220 390 L 219 391 Z M 362 389 L 363 388 L 364 389 L 363 390 Z M 225 389 L 226 388 L 227 389 L 226 390 Z M 217 389 L 218 388 L 219 389 L 218 390 Z M 374 388 L 375 387 L 376 388 L 375 389 Z M 224 388 L 225 387 L 226 388 L 225 389 Z M 375 387 L 376 386 L 377 387 L 376 388 Z M 363 387 L 364 386 L 365 387 L 364 388 Z M 364 386 L 365 385 L 366 386 L 365 387 Z M 223 386 L 224 385 L 225 386 L 224 387 Z M 215 386 L 216 385 L 217 386 L 216 387 Z M 376 385 L 377 384 L 378 385 L 377 386 Z M 365 385 L 366 384 L 367 385 L 366 386 Z M 222 385 L 223 384 L 224 385 L 223 386 Z M 377 384 L 378 383 L 379 384 L 378 385 Z M 221 384 L 222 383 L 223 384 L 222 385 Z M 214 384 L 215 383 L 216 384 L 215 385 Z M 378 382 L 379 381 L 380 382 L 379 383 Z M 367 382 L 368 381 L 369 382 L 368 383 Z M 213 382 L 214 381 L 215 382 L 215 383 L 214 384 L 213 383 Z M 379 381 L 380 380 L 381 381 L 380 382 Z M 368 381 L 369 380 L 370 381 L 369 382 Z M 219 381 L 220 380 L 221 381 L 220 382 Z M 212 381 L 213 380 L 214 381 L 213 382 Z M 218 380 L 219 379 L 220 380 L 219 381 Z M 380 379 L 381 378 L 382 379 L 381 380 Z M 369 379 L 370 378 L 371 379 L 370 380 Z M 211 379 L 212 378 L 213 379 L 212 380 Z M 381 378 L 382 377 L 383 378 L 382 379 Z M 370 378 L 371 377 L 372 378 L 371 379 Z M 217 378 L 218 377 L 219 378 L 218 379 Z M 216 377 L 217 376 L 218 377 L 217 378 Z M 210 377 L 211 376 L 212 377 L 211 378 Z M 382 376 L 383 375 L 384 376 L 383 377 Z M 371 376 L 372 375 L 373 376 L 372 377 Z M 372 375 L 373 374 L 374 375 L 373 376 Z M 215 375 L 216 374 L 217 375 L 216 376 Z M 209 375 L 210 374 L 211 375 L 210 376 Z M 383 374 L 384 373 L 385 374 L 384 375 Z M 214 374 L 215 373 L 216 374 L 215 375 Z M 373 373 L 374 372 L 375 373 L 374 374 Z M 208 373 L 209 372 L 210 373 L 209 374 Z M 384 372 L 385 371 L 386 372 L 385 373 Z M 374 372 L 375 371 L 376 372 L 375 373 Z M 213 372 L 214 371 L 215 372 L 214 373 Z M 212 371 L 213 370 L 214 371 L 213 372 Z M 207 371 L 208 370 L 209 371 L 208 372 Z M 385 370 L 386 369 L 387 370 L 387 371 L 386 372 L 385 371 Z M 375 370 L 376 369 L 377 370 L 376 371 Z M 386 368 L 387 367 L 388 368 L 388 369 L 387 370 L 386 369 Z M 376 368 L 377 367 L 378 368 L 377 369 Z M 211 368 L 212 367 L 213 368 L 212 369 Z M 206 368 L 207 367 L 208 368 L 207 369 Z M 205 367 L 206 366 L 207 367 L 206 368 Z M 387 366 L 388 365 L 389 366 L 388 367 Z M 377 366 L 378 365 L 379 366 L 378 367 Z M 210 366 L 211 365 L 212 366 L 212 367 L 211 368 L 210 367 Z M 378 365 L 379 364 L 380 365 L 379 366 Z M 209 365 L 210 364 L 211 365 L 210 366 Z M 388 364 L 389 363 L 390 364 L 390 365 L 389 366 L 388 365 Z M 379 363 L 380 362 L 381 363 L 380 364 Z M 204 363 L 205 362 L 206 363 L 206 364 L 205 365 L 204 364 Z M 389 362 L 390 361 L 391 362 L 390 363 Z M 208 362 L 209 361 L 210 362 L 209 363 Z M 390 360 L 391 359 L 392 360 L 392 361 L 391 362 L 390 361 Z M 380 360 L 381 359 L 382 360 L 382 361 L 381 362 L 380 361 Z M 203 360 L 204 359 L 205 360 L 205 361 L 204 362 L 203 361 Z M 207 359 L 208 358 L 209 359 L 209 360 L 208 361 L 207 360 Z M 391 358 L 392 357 L 393 358 L 392 359 Z M 381 358 L 382 357 L 383 358 L 382 359 Z M 206 357 L 207 356 L 208 357 L 207 358 Z M 202 357 L 203 356 L 204 357 L 204 358 L 203 359 L 202 358 Z M 382 356 L 383 355 L 384 356 L 383 357 Z M 392 355 L 393 354 L 394 355 L 394 356 L 393 357 L 392 356 Z M 202 355 L 203 354 L 204 355 L 203 356 Z M 383 354 L 384 353 L 385 354 L 384 355 Z M 205 354 L 206 353 L 207 354 L 207 355 L 206 356 L 205 355 Z M 394 350 L 395 351 L 395 353 L 394 354 L 393 353 L 393 351 Z M 202 350 L 203 351 L 203 353 L 202 354 L 201 353 L 201 351 Z M 395 347 L 396 348 L 396 350 L 395 351 L 394 350 L 394 348 Z M 394 346 L 395 345 L 396 346 L 395 347 Z M 386 345 L 387 344 L 388 345 L 387 346 Z M 395 344 L 396 343 L 397 344 L 397 345 L 396 346 L 395 345 Z M 394 342 L 395 341 L 396 342 L 395 343 Z M 387 340 L 388 341 L 388 343 L 387 344 L 386 343 L 386 341 Z M 395 333 L 396 334 L 396 340 L 395 341 L 394 340 L 394 334 Z M 386 333 L 387 334 L 387 339 L 386 340 L 385 339 L 385 334 Z M 393 332 L 394 331 L 395 332 L 394 333 Z M 394 325 L 395 326 L 395 330 L 394 331 L 393 330 L 393 326 Z M 393 319 L 394 320 L 394 324 L 393 325 L 392 324 L 392 320 Z M 384 319 L 385 320 L 385 325 L 384 326 L 383 325 L 383 320 Z M 392 313 L 393 314 L 393 318 L 392 319 L 391 318 L 391 314 Z M 383 311 L 384 312 L 384 318 L 383 319 L 382 318 L 382 312 Z M 391 307 L 392 308 L 392 312 L 391 313 L 390 312 L 390 308 Z M 382 304 L 383 305 L 383 310 L 382 311 L 381 310 L 381 305 Z M 381 299 L 382 300 L 382 303 L 381 304 L 380 303 L 380 300 Z M 184 300 L 185 299 L 186 299 L 187 300 L 186 301 L 185 301 Z M 182 299 L 183 298 L 184 298 L 185 299 L 184 300 L 183 300 Z M 380 298 L 381 297 L 382 298 L 381 299 Z M 181 298 L 182 297 L 183 298 L 182 299 Z M 389 296 L 390 297 L 390 301 L 389 302 L 388 301 L 388 297 Z M 179 297 L 180 296 L 181 296 L 182 297 L 181 298 L 180 298 Z M 192 295 L 193 296 L 193 298 L 192 299 L 191 298 L 191 296 Z M 177 296 L 178 295 L 179 295 L 180 296 L 179 297 L 178 297 Z M 176 295 L 177 294 L 178 295 L 177 296 Z M 174 294 L 175 293 L 176 293 L 177 294 L 176 295 L 175 295 Z M 380 292 L 381 293 L 381 296 L 380 297 L 379 296 L 379 293 Z M 173 293 L 174 292 L 175 293 L 174 294 Z M 191 291 L 192 292 L 192 294 L 191 295 L 190 294 L 190 292 Z M 172 292 L 173 291 L 174 292 L 173 293 Z M 388 290 L 389 291 L 389 295 L 388 296 L 387 295 L 387 291 Z M 379 291 L 380 290 L 381 291 L 380 292 Z M 171 291 L 172 290 L 173 291 L 172 292 Z M 169 290 L 170 289 L 171 289 L 172 290 L 171 291 L 170 291 Z M 168 289 L 169 288 L 170 289 L 169 290 Z M 167 288 L 168 287 L 169 288 L 168 289 Z M 166 287 L 167 286 L 168 287 L 167 288 Z M 165 286 L 166 285 L 167 286 L 166 287 Z M 387 284 L 388 285 L 388 289 L 387 290 L 386 289 L 386 285 Z M 188 285 L 189 284 L 190 285 L 190 286 L 189 287 L 188 286 Z M 164 285 L 165 284 L 166 285 L 165 286 Z M 187 284 L 188 283 L 189 284 L 188 285 Z M 163 283 L 164 282 L 165 283 L 164 284 Z M 187 282 L 188 281 L 189 282 L 188 283 Z M 162 282 L 163 281 L 164 282 L 163 283 Z M 161 281 L 162 280 L 163 281 L 162 282 Z M 386 279 L 387 280 L 387 283 L 386 284 L 385 283 L 385 280 Z M 186 280 L 187 279 L 188 280 L 187 281 Z M 160 280 L 161 279 L 162 280 L 161 281 Z M 186 278 L 187 277 L 188 278 L 187 279 Z M 159 278 L 160 277 L 161 278 L 160 279 Z M 158 277 L 159 276 L 160 277 L 159 278 Z M 157 275 L 158 274 L 159 275 L 158 276 Z M 385 273 L 386 274 L 386 278 L 385 279 L 384 278 L 384 274 Z M 186 273 L 187 274 L 187 276 L 186 277 L 185 276 L 185 274 Z M 156 273 L 157 272 L 158 273 L 157 274 Z M 377 271 L 378 272 L 378 277 L 377 278 L 376 277 L 376 272 Z M 184 271 L 185 270 L 186 271 L 186 272 L 185 273 L 184 272 Z M 155 271 L 156 270 L 157 271 L 157 272 L 156 273 L 155 272 Z M 184 269 L 185 268 L 186 269 L 185 270 Z M 154 269 L 155 268 L 156 269 L 155 270 Z M 384 267 L 385 268 L 385 272 L 384 273 L 383 272 L 383 268 Z M 185 268 L 186 267 L 187 268 L 186 269 Z M 186 267 L 187 266 L 188 267 L 187 268 Z M 127 267 L 128 266 L 131 266 L 132 267 L 131 268 L 128 268 Z M 187 266 L 188 265 L 189 266 L 188 267 Z M 124 266 L 125 265 L 127 265 L 128 266 L 127 267 L 125 267 Z M 376 264 L 377 265 L 377 270 L 376 271 L 375 270 L 375 265 Z M 188 265 L 189 264 L 190 265 L 189 266 Z M 122 265 L 123 264 L 124 264 L 125 265 L 124 266 L 123 266 Z M 189 264 L 190 263 L 191 264 L 190 265 Z M 120 264 L 121 263 L 122 263 L 123 264 L 122 265 L 121 265 Z M 190 263 L 191 262 L 192 263 L 191 264 Z M 118 263 L 119 262 L 120 262 L 121 263 L 120 264 L 119 264 Z M 191 262 L 192 261 L 193 262 L 192 263 Z M 117 262 L 118 261 L 119 262 L 118 263 Z M 192 261 L 193 260 L 194 261 L 193 262 Z M 181 261 L 182 260 L 183 261 L 182 262 Z M 116 261 L 117 260 L 118 261 L 117 262 Z M 193 260 L 194 259 L 195 260 L 194 261 Z M 115 260 L 116 259 L 117 260 L 116 261 Z M 194 259 L 195 258 L 196 259 L 195 260 Z M 182 259 L 183 258 L 184 259 L 183 260 Z M 114 259 L 115 258 L 116 259 L 115 260 Z M 195 258 L 196 257 L 197 258 L 196 259 Z M 180 258 L 181 257 L 182 258 L 181 259 Z M 113 258 L 114 257 L 115 258 L 114 259 Z M 375 256 L 376 257 L 376 263 L 375 264 L 374 263 L 374 257 Z M 196 257 L 197 256 L 198 256 L 199 257 L 198 258 L 197 258 Z M 183 257 L 184 256 L 185 257 L 184 258 Z M 112 257 L 113 256 L 114 257 L 113 258 Z M 198 256 L 199 255 L 229 255 L 230 256 L 229 257 L 199 257 Z M 111 256 L 112 255 L 113 256 L 112 257 Z M 184 255 L 185 254 L 186 255 L 185 256 Z M 180 255 L 181 254 L 182 255 L 182 256 L 181 257 L 180 256 Z M 179 254 L 180 253 L 181 254 L 180 255 Z M 109 253 L 110 252 L 111 253 L 110 254 Z M 186 252 L 187 251 L 188 252 L 187 253 Z M 179 252 L 180 251 L 181 252 L 180 253 Z M 374 250 L 375 251 L 375 255 L 374 256 L 373 255 L 373 251 Z M 187 251 L 188 250 L 189 251 L 188 252 Z M 108 251 L 109 250 L 110 251 L 109 252 Z M 383 250 L 384 249 L 385 250 L 385 251 L 384 252 L 383 251 Z M 178 250 L 179 249 L 180 250 L 179 251 Z M 107 249 L 108 248 L 109 249 L 108 250 Z M 384 248 L 385 247 L 386 248 L 385 249 Z M 189 248 L 190 247 L 191 248 L 190 249 Z M 190 247 L 191 246 L 192 247 L 191 248 Z M 191 246 L 192 245 L 193 245 L 194 246 L 193 247 L 192 247 Z M 107 245 L 108 246 L 108 248 L 107 249 L 106 248 L 106 246 Z M 385 245 L 386 244 L 387 245 L 386 246 Z M 193 245 L 194 244 L 195 245 L 194 246 Z M 179 244 L 180 245 L 180 248 L 179 249 L 178 248 L 178 245 Z M 373 243 L 374 244 L 374 249 L 373 250 L 372 249 L 372 244 Z M 194 244 L 195 243 L 196 244 L 195 245 Z M 386 243 L 387 242 L 388 243 L 387 244 Z M 195 243 L 196 242 L 198 242 L 199 243 L 198 244 L 196 244 Z M 179 243 L 180 242 L 181 243 L 181 244 L 180 245 L 179 244 Z M 232 241 L 233 242 L 233 245 L 232 246 L 231 245 L 231 242 Z M 198 242 L 199 241 L 201 241 L 202 242 L 201 243 L 199 243 Z M 387 241 L 388 240 L 389 241 L 388 242 Z M 230 241 L 231 240 L 232 241 L 231 242 Z M 201 241 L 202 240 L 205 240 L 206 241 L 205 242 L 202 242 Z M 180 241 L 181 240 L 182 241 L 181 242 Z M 205 240 L 206 239 L 209 239 L 210 240 L 209 241 L 206 241 Z M 181 240 L 182 239 L 183 240 L 182 241 Z M 388 239 L 389 238 L 390 239 L 389 240 Z M 209 239 L 210 238 L 216 238 L 217 239 L 216 240 L 210 240 Z M 182 239 L 183 238 L 184 239 L 183 240 Z M 389 238 L 390 237 L 391 238 L 390 239 Z M 216 238 L 217 237 L 226 237 L 227 238 L 226 239 L 217 239 Z M 183 237 L 184 236 L 185 237 L 184 238 Z M 390 236 L 391 235 L 392 236 L 391 237 Z M 184 236 L 185 235 L 186 236 L 185 237 Z M 391 235 L 392 234 L 393 235 L 392 236 Z M 185 235 L 186 234 L 187 235 L 186 236 Z M 187 234 L 188 233 L 189 234 L 188 235 Z M 392 233 L 393 232 L 394 233 L 393 234 Z M 369 233 L 370 232 L 371 233 L 370 234 Z M 188 233 L 189 232 L 190 233 L 189 234 Z M 189 232 L 190 231 L 191 231 L 192 232 L 191 233 L 190 233 Z M 393 231 L 394 230 L 395 231 L 394 232 Z M 369 231 L 370 230 L 371 231 L 370 232 Z M 191 231 L 192 230 L 193 230 L 194 231 L 193 232 L 192 232 Z M 394 230 L 395 229 L 396 230 L 395 231 Z M 193 230 L 194 229 L 195 229 L 196 230 L 195 231 L 194 231 Z M 195 229 L 196 228 L 198 228 L 199 229 L 198 230 L 196 230 Z M 395 228 L 396 227 L 397 228 L 396 229 Z M 368 228 L 369 227 L 370 228 L 369 229 Z M 198 228 L 199 227 L 201 227 L 202 228 L 201 229 L 199 229 Z M 396 227 L 397 226 L 398 227 L 397 228 Z M 201 227 L 202 226 L 205 226 L 206 227 L 205 228 L 202 228 Z M 397 226 L 398 225 L 399 226 L 398 227 Z M 367 226 L 368 225 L 369 226 L 368 227 Z M 205 226 L 206 225 L 209 225 L 210 226 L 209 227 L 206 227 Z M 209 225 L 210 224 L 213 224 L 214 225 L 213 226 L 210 226 Z M 398 224 L 399 223 L 400 224 L 399 225 Z M 399 223 L 400 222 L 401 223 L 400 224 Z M 366 223 L 367 222 L 368 223 L 368 224 L 367 225 L 366 224 Z M 400 222 L 401 221 L 402 222 L 401 223 Z M 365 222 L 366 221 L 367 222 L 366 223 Z M 222 222 L 223 221 L 226 221 L 227 222 L 226 223 L 223 223 Z M 226 221 L 227 220 L 230 220 L 231 221 L 230 222 L 227 222 Z M 401 220 L 402 219 L 403 220 L 402 221 Z M 365 220 L 366 219 L 367 220 L 366 221 Z M 230 220 L 231 219 L 234 219 L 235 220 L 234 221 L 231 221 Z M 402 219 L 403 218 L 404 219 L 403 220 Z M 234 219 L 235 218 L 238 218 L 239 219 L 238 220 L 235 220 Z M 403 218 L 404 217 L 405 218 L 404 219 Z M 364 218 L 365 217 L 366 218 L 365 219 Z M 238 218 L 239 217 L 241 217 L 242 218 L 241 219 L 239 219 Z M 241 217 L 242 216 L 244 216 L 245 217 L 244 218 L 242 218 Z M 363 216 L 364 215 L 365 216 L 365 217 L 364 218 L 363 217 Z M 244 216 L 245 215 L 247 215 L 248 216 L 247 217 L 245 217 Z M 247 215 L 248 214 L 250 214 L 251 215 L 250 216 L 248 216 Z M 250 214 L 251 213 L 253 213 L 254 214 L 253 215 L 251 215 Z M 362 213 L 363 212 L 364 213 L 363 214 Z M 253 213 L 254 212 L 255 212 L 256 213 L 255 214 L 254 214 Z M 255 212 L 256 211 L 258 211 L 259 212 L 258 213 L 256 213 Z M 361 211 L 362 210 L 363 211 L 363 212 L 362 213 L 361 212 Z M 258 211 L 259 210 L 260 210 L 261 211 L 260 212 L 259 212 Z M 260 210 L 261 209 L 262 209 L 263 210 L 262 211 L 261 211 Z M 360 209 L 361 208 L 362 209 L 361 210 Z M 262 209 L 263 208 L 265 208 L 266 209 L 265 210 L 263 210 Z M 359 207 L 360 206 L 361 207 L 360 208 Z M 128 207 L 129 206 L 130 206 L 131 207 L 130 208 L 129 208 Z M 106 207 L 107 206 L 108 207 L 107 208 Z M 130 206 L 131 205 L 132 205 L 133 206 L 132 207 L 131 207 Z M 358 205 L 359 204 L 360 205 L 359 206 Z M 271 205 L 272 204 L 273 205 L 272 206 Z M 132 205 L 133 204 L 134 204 L 135 205 L 134 206 L 133 206 Z M 272 204 L 273 203 L 274 203 L 275 204 L 274 205 L 273 205 Z M 134 204 L 135 203 L 136 204 L 135 205 Z M 274 203 L 275 202 L 276 202 L 277 203 L 276 204 L 275 204 Z M 135 203 L 136 202 L 137 202 L 138 203 L 137 204 L 136 204 Z M 357 202 L 358 201 L 359 202 L 358 203 Z M 276 202 L 277 201 L 278 201 L 279 202 L 278 203 L 277 203 Z M 137 202 L 138 201 L 139 202 L 138 203 Z M 278 201 L 279 200 L 280 201 L 279 202 Z M 138 201 L 139 200 L 140 201 L 139 202 Z M 356 200 L 357 199 L 358 200 L 357 201 Z M 279 200 L 280 199 L 281 199 L 282 200 L 281 201 L 280 201 Z M 281 199 L 282 198 L 283 199 L 282 200 Z M 141 198 L 142 199 L 142 200 L 141 201 L 140 201 L 139 200 Z M 355 198 L 356 197 L 357 198 L 356 199 Z M 282 198 L 283 197 L 284 197 L 285 198 L 284 199 L 283 199 Z M 136 198 L 137 197 L 139 197 L 140 198 L 140 199 L 139 200 L 138 199 L 137 199 Z M 284 197 L 285 196 L 286 196 L 287 197 L 286 198 L 285 198 Z M 134 197 L 135 196 L 136 196 L 137 197 L 136 198 L 135 198 Z M 354 196 L 355 195 L 356 196 L 356 197 L 355 198 L 354 197 Z M 286 196 L 287 195 L 288 196 L 287 197 Z M 133 196 L 134 195 L 135 196 L 134 197 Z M 353 195 L 354 194 L 355 195 L 354 196 Z M 287 195 L 288 194 L 289 194 L 290 195 L 289 196 L 288 196 Z M 132 195 L 133 194 L 134 195 L 133 196 Z M 289 194 L 290 193 L 291 194 L 290 195 Z M 131 194 L 132 193 L 133 194 L 132 195 Z M 352 193 L 353 192 L 354 193 L 353 194 Z M 290 193 L 291 192 L 292 193 L 291 194 Z M 130 193 L 131 192 L 132 193 L 131 194 Z M 291 192 L 292 191 L 293 191 L 294 192 L 293 193 L 292 193 Z M 129 192 L 130 191 L 131 192 L 130 193 Z M 351 191 L 352 190 L 353 191 L 352 192 Z M 293 191 L 294 190 L 295 191 L 294 192 Z M 294 190 L 295 189 L 296 190 L 295 191 Z M 128 190 L 129 189 L 130 190 L 129 191 Z M 350 189 L 351 188 L 352 189 L 351 190 Z M 295 189 L 296 188 L 297 188 L 298 189 L 297 190 L 296 190 Z M 127 189 L 128 188 L 129 189 L 128 190 Z M 297 188 L 298 187 L 299 188 L 298 189 Z M 403 186 L 404 187 L 404 190 L 403 191 L 402 190 L 402 187 Z M 349 187 L 350 186 L 351 187 L 350 188 Z M 298 187 L 299 186 L 300 187 L 299 188 Z M 348 186 L 349 185 L 350 186 L 349 187 Z M 299 186 L 300 185 L 301 186 L 300 187 Z M 301 185 L 302 184 L 303 185 L 302 186 Z M 347 184 L 348 183 L 349 184 L 348 185 Z M 302 184 L 303 183 L 304 184 L 303 185 Z M 127 183 L 128 184 L 128 186 L 127 187 L 126 186 L 126 184 Z M 402 182 L 403 183 L 403 185 L 402 186 L 401 185 L 401 183 Z M 303 183 L 304 182 L 305 183 L 304 184 Z M 346 182 L 347 181 L 348 182 L 347 183 Z M 304 182 L 305 181 L 306 182 L 305 183 Z M 345 181 L 346 180 L 347 181 L 346 182 Z M 305 181 L 306 180 L 307 181 L 306 182 Z M 307 180 L 308 179 L 309 180 L 308 181 Z M 401 178 L 402 179 L 402 181 L 401 182 L 400 181 L 400 179 Z M 344 179 L 345 178 L 346 179 L 345 180 Z M 308 179 L 309 178 L 310 179 L 309 180 Z M 343 178 L 344 177 L 345 178 L 344 179 Z M 309 178 L 310 177 L 311 178 L 310 179 Z M 342 177 L 343 176 L 344 177 L 343 178 Z M 310 177 L 311 176 L 312 177 L 311 178 Z M 399 176 L 400 175 L 401 176 L 401 177 L 400 178 L 399 177 Z M 311 176 L 312 175 L 313 176 L 312 177 Z M 341 175 L 342 174 L 343 175 L 342 176 Z M 312 175 L 313 174 L 314 175 L 313 176 Z M 340 174 L 341 173 L 342 174 L 341 175 Z M 313 174 L 314 173 L 315 174 L 314 175 Z M 398 173 L 399 172 L 400 173 L 400 174 L 399 175 L 398 174 Z M 314 173 L 315 172 L 316 173 L 315 174 Z M 126 172 L 127 173 L 127 182 L 126 183 L 125 182 L 125 173 Z M 315 172 L 316 171 L 317 172 L 316 173 Z M 316 171 L 317 170 L 318 171 L 317 172 Z M 142 171 L 143 170 L 144 171 L 143 172 Z M 135 171 L 136 170 L 137 170 L 138 171 L 137 172 L 136 172 Z M 397 170 L 398 169 L 399 170 L 398 171 Z M 317 170 L 318 169 L 319 170 L 318 171 Z M 134 170 L 135 169 L 136 170 L 135 171 Z M 396 169 L 397 168 L 398 169 L 397 170 Z M 318 169 L 319 168 L 320 169 L 319 170 Z M 133 169 L 134 168 L 135 169 L 134 170 Z M 127 168 L 128 169 L 128 171 L 127 172 L 126 171 L 126 169 Z M 334 168 L 335 167 L 336 168 L 335 169 Z M 319 168 L 320 167 L 321 168 L 320 169 Z M 127 168 L 128 167 L 129 168 L 128 169 Z M 396 167 L 397 166 L 398 167 L 397 168 Z M 333 167 L 334 166 L 335 167 L 334 168 Z M 320 167 L 321 166 L 322 167 L 321 168 Z M 143 166 L 144 167 L 144 169 L 143 170 L 142 169 L 142 167 Z M 395 166 L 396 165 L 397 166 L 396 167 Z M 331 166 L 332 165 L 333 165 L 334 166 L 333 167 L 332 167 Z M 321 166 L 322 165 L 323 165 L 324 166 L 323 167 L 322 167 Z M 323 165 L 324 164 L 331 164 L 332 165 L 331 166 L 324 166 Z M 143 165 L 144 164 L 145 165 L 144 166 Z M 394 163 L 395 162 L 396 163 L 395 164 Z M 143 163 L 144 162 L 145 163 L 144 164 Z M 144 161 L 145 160 L 146 161 L 145 162 Z M 393 160 L 394 159 L 395 160 L 394 161 Z M 144 159 L 145 158 L 146 159 L 145 160 Z M 392 158 L 393 157 L 394 158 L 393 159 Z M 391 156 L 392 155 L 393 156 L 392 157 Z M 145 156 L 146 155 L 147 156 L 147 157 L 146 158 L 145 157 Z M 390 154 L 391 153 L 392 154 L 391 155 Z M 146 153 L 147 152 L 148 153 L 148 154 L 147 155 L 146 154 Z M 389 151 L 390 150 L 391 151 L 391 152 L 390 153 L 389 152 Z M 147 150 L 148 149 L 149 150 L 149 151 L 148 152 L 147 151 Z M 388 149 L 389 148 L 390 149 L 390 150 L 389 151 L 388 150 Z M 148 149 L 149 148 L 150 149 L 149 150 Z M 387 147 L 388 146 L 389 147 L 388 148 Z M 149 147 L 150 146 L 151 147 L 150 148 Z M 386 146 L 387 145 L 388 146 L 387 147 Z M 385 144 L 386 143 L 387 144 L 386 145 Z M 150 144 L 151 143 L 152 144 L 151 145 Z M 384 142 L 385 141 L 386 142 L 385 143 Z M 151 142 L 152 141 L 153 142 L 152 143 Z M 383 141 L 384 140 L 385 141 L 384 142 Z M 152 140 L 153 139 L 154 140 L 153 141 Z M 382 139 L 383 138 L 384 139 L 383 140 Z M 153 138 L 154 137 L 155 138 L 154 139 Z M 381 137 L 382 136 L 383 137 L 382 138 Z M 380 136 L 381 135 L 382 136 L 381 137 Z M 154 136 L 155 135 L 156 136 L 155 137 Z M 155 135 L 156 134 L 157 135 L 156 136 Z M 379 134 L 380 133 L 381 134 L 380 135 Z M 378 133 L 379 132 L 380 133 L 379 134 Z M 156 133 L 157 132 L 158 133 L 157 134 Z M 377 131 L 378 130 L 379 131 L 378 132 Z M 157 131 L 158 130 L 159 131 L 158 132 Z M 376 130 L 377 129 L 378 130 L 377 131 Z M 158 130 L 159 129 L 160 130 L 159 131 Z M 375 129 L 376 128 L 377 129 L 376 130 Z M 159 128 L 160 127 L 161 128 L 160 129 Z M 374 127 L 375 126 L 376 127 L 375 128 Z M 160 127 L 161 126 L 162 127 L 161 128 Z M 373 126 L 374 125 L 375 126 L 374 127 Z M 161 126 L 162 125 L 163 126 L 162 127 Z M 372 125 L 373 124 L 374 125 L 373 126 Z M 162 124 L 163 123 L 164 124 L 163 125 Z M 163 123 L 164 122 L 165 123 L 164 124 Z M 164 122 L 165 121 L 166 122 L 165 123 Z M 369 121 L 370 120 L 371 121 L 370 122 Z M 165 121 L 166 120 L 167 121 L 166 122 Z M 368 120 L 369 119 L 370 120 L 369 121 Z M 367 119 L 368 118 L 369 119 L 368 120 Z M 166 119 L 167 118 L 168 119 L 167 120 Z M 366 118 L 367 117 L 368 118 L 367 119 Z M 167 118 L 168 117 L 169 118 L 168 119 Z M 365 117 L 366 116 L 367 117 L 366 118 Z M 168 117 L 169 116 L 170 117 L 169 118 Z M 364 116 L 365 115 L 366 116 L 365 117 Z M 169 116 L 170 115 L 171 116 L 170 117 Z M 363 115 L 364 114 L 365 115 L 364 116 Z M 170 115 L 171 114 L 172 115 L 171 116 Z M 362 114 L 363 113 L 364 114 L 363 115 Z M 171 114 L 172 113 L 173 114 L 172 115 Z M 361 113 L 362 112 L 363 113 L 362 114 Z M 172 113 L 173 112 L 174 113 L 173 114 Z M 360 112 L 361 111 L 362 112 L 361 113 Z M 173 112 L 174 111 L 175 112 L 174 113 Z M 359 111 L 360 110 L 361 111 L 360 112 Z M 174 111 L 175 110 L 176 111 L 175 112 Z M 358 110 L 359 109 L 360 110 L 359 111 Z M 175 110 L 176 109 L 177 110 L 176 111 Z M 357 109 L 358 108 L 359 109 L 358 110 Z M 176 109 L 177 108 L 178 108 L 179 109 L 178 110 L 177 110 Z M 355 108 L 356 107 L 357 107 L 358 108 L 357 109 L 356 109 Z M 178 108 L 179 107 L 180 108 L 179 109 Z M 354 107 L 355 106 L 356 107 L 355 108 Z M 179 107 L 180 106 L 181 107 L 180 108 Z M 353 106 L 354 105 L 355 106 L 354 107 Z M 180 106 L 181 105 L 182 106 L 181 107 Z M 352 105 L 353 104 L 354 105 L 353 106 Z M 181 105 L 182 104 L 183 105 L 182 106 Z M 350 104 L 351 103 L 352 103 L 353 104 L 352 105 L 351 105 Z M 182 104 L 183 103 L 184 103 L 185 104 L 184 105 L 183 105 Z M 349 103 L 350 102 L 351 103 L 350 104 Z M 184 103 L 185 102 L 186 103 L 185 104 Z M 348 102 L 349 101 L 350 102 L 349 103 Z M 185 102 L 186 101 L 187 101 L 188 102 L 187 103 L 186 103 Z M 346 101 L 347 100 L 348 101 L 347 102 Z M 187 101 L 188 100 L 189 101 L 188 102 Z M 345 100 L 346 99 L 347 100 L 346 101 Z M 188 100 L 189 99 L 190 99 L 191 100 L 190 101 L 189 101 Z M 190 99 L 191 98 L 192 99 L 191 100 Z M 341 98 L 342 97 L 343 97 L 344 98 L 343 99 L 342 99 Z M 191 98 L 192 97 L 193 97 L 194 98 L 193 99 L 192 99 Z M 340 97 L 341 96 L 342 97 L 341 98 Z M 193 97 L 194 96 L 195 96 L 196 97 L 195 98 L 194 98 Z M 338 96 L 339 95 L 340 95 L 341 96 L 340 97 L 339 97 Z M 195 96 L 196 95 L 197 96 L 196 97 Z M 336 95 L 337 94 L 338 94 L 339 95 L 338 96 L 337 96 Z M 334 94 L 335 93 L 336 93 L 337 94 L 336 95 L 335 95 Z M 332 93 L 333 92 L 334 92 L 335 93 L 334 94 L 333 94 Z M 330 92 L 331 91 L 332 91 L 333 92 L 332 93 L 331 93 Z M 202 92 L 203 91 L 205 91 L 206 92 L 205 93 L 203 93 Z M 328 91 L 329 90 L 330 90 L 331 91 L 330 92 L 329 92 Z M 205 91 L 206 90 L 207 90 L 208 91 L 207 92 L 206 92 Z M 326 90 L 327 89 L 328 89 L 329 90 L 328 91 L 327 91 Z M 207 90 L 208 89 L 209 89 L 210 90 L 209 91 L 208 91 Z M 323 89 L 324 88 L 326 88 L 327 89 L 326 90 L 324 90 Z M 209 89 L 210 88 L 212 88 L 213 89 L 212 90 L 210 90 Z M 321 88 L 322 87 L 323 87 L 324 88 L 323 89 L 322 89 Z M 212 88 L 213 87 L 215 87 L 216 88 L 215 89 L 213 89 Z M 318 87 L 319 86 L 321 86 L 322 87 L 321 88 L 319 88 Z M 215 87 L 216 86 L 218 86 L 219 87 L 218 88 L 216 88 Z M 315 86 L 316 85 L 318 85 L 319 86 L 318 87 L 316 87 Z M 218 86 L 219 85 L 221 85 L 222 86 L 221 87 L 219 87 Z M 311 85 L 312 84 L 315 84 L 316 85 L 315 86 L 312 86 Z M 221 85 L 222 84 L 225 84 L 226 85 L 225 86 L 222 86 Z M 307 84 L 308 83 L 311 83 L 312 84 L 311 85 L 308 85 Z M 225 84 L 226 83 L 229 83 L 230 84 L 229 85 L 226 85 Z M 303 83 L 304 82 L 307 82 L 308 83 L 307 84 L 304 84 Z M 229 83 L 230 82 L 234 82 L 235 83 L 234 84 L 230 84 Z M 234 82 L 235 81 L 239 81 L 240 82 L 239 83 L 235 83 Z"/>
</svg>
